<?xml version="1.0" encoding="iso-8859-1"?>
<!-- Generator: Adobe Illustrator 18.0.0, SVG Export Plug-In . SVG Version: 6.00 Build 0)  -->
<!DOCTYPE svg PUBLIC "-//W3C//DTD SVG 1.1//EN" "http://www.w3.org/Graphics/SVG/1.1/DTD/svg11.dtd">
<svg version="1.1" id="Capa_1" xmlns="http://www.w3.org/2000/svg" xmlns:xlink="http://www.w3.org/1999/xlink" x="0px" y="0px"
	 viewBox="0 0 300.086 300.086" style="enable-background:new 0 0 300.086 300.086;" xml:space="preserve">
<path d="M252.472,129.074c-35.063,1.018-81.701,5.444-133.099,14.293c-51.4,8.846-62.426-5.467-67.398-21.439
	c-5.63-18.084,0.212-27.206,0.212-27.206c33.263-5.405,36.17-26.597,35.337-38.658c-3.323,4.165-8.413,6.899-12.634,7.058
	c-3.024,0.11-12.306-9.346-27.274,5.832c0.834-8.314-3.143-13.805-13.254-16.631C23.987,49.41,16.032,63.42,0.223,49.414
	c-3.326,44.068,31.594,45.308,31.594,45.308c-14.225,78.259,45.009,118.089,46.028,122.857c1.021,4.759-15.999,9.523-12.938,14.298
	c3.065,4.76,23.83,3.746,36.088,1.354c59.566,15.655,72.466,18.708,143.647,17.031c57.279-1.369,56.638-51.767,54.944-69.499
	C296.259,145.907,287.535,128.051,252.472,129.074z"/>
<g>
</g>
<g>
</g>
<g>
</g>
<g>
</g>
<g>
</g>
<g>
</g>
<g>
</g>
<g>
</g>
<g>
</g>
<g>
</g>
<g>
</g>
<g>
</g>
<g>
</g>
<g>
</g>
<g>
</g>
</svg>
